<svg width="32" height="32" viewBox="0 0 32 32" fill="none" xmlns="http://www.w3.org/2000/svg">
<g id="UI/General/Search">
<path id="&#240;&#159;&#142;&#168;Core Black" fill-rule="evenodd" clip-rule="evenodd" d="M8.79995 12.5C8.79995 9.90421 10.9042 7.79995 13.5 7.79995C16.0957 7.79995 18.2 9.90421 18.2 12.5C18.2 15.0957 16.0957 17.2 13.5 17.2C10.9042 17.2 8.79995 15.0957 8.79995 12.5ZM13.5 6.19995C10.0206 6.19995 7.19995 9.02056 7.19995 12.5C7.19995 15.9793 10.0206 18.8 13.5 18.8C16.9793 18.8 19.8 15.9793 19.8 12.5C19.8 9.02056 16.9793 6.19995 13.5 6.19995ZM19.697 18.4343C19.3846 18.1218 18.8781 18.1218 18.5656 18.4343C18.2532 18.7467 18.2532 19.2532 18.5656 19.5656L23.4343 24.4343C23.7467 24.7467 24.2532 24.7467 24.5656 24.4343C24.8781 24.1218 24.8781 23.6153 24.5656 23.3029L19.697 18.4343Z" fill="white"/>
</g>
</svg>
