<svg width="32" height="32" viewBox="0 0 32 32" fill="none" xmlns="http://www.w3.org/2000/svg">
<g id="UI/General/Store">
<path id="&#240;&#159;&#142;&#168;Core Black" fill-rule="evenodd" clip-rule="evenodd" d="M15.844 6.20002V6.19995L15.8335 6.20009C9.83661 6.27924 6.63691 12.8422 10.1822 17.9545L10.1833 17.956L15.3348 25.4531C15.4838 25.6699 15.7299 25.7997 15.9931 25.8C16.2562 25.8004 16.5027 25.6713 16.6523 25.4549L21.8359 17.9549L21.837 17.9532C25.3483 12.8444 22.1553 6.27934 16.1849 6.20009L16.1849 6.20002H16.1743H15.9941H15.844ZM11.4979 17.044C8.62148 12.8981 11.2428 7.86453 15.8495 7.80002H15.9941H16.1688C20.7423 7.86447 23.3702 12.8966 20.519 17.0461L20.5185 17.0469L15.9961 23.5902L11.4999 17.047L11.4999 17.047L11.4979 17.044ZM15.9999 15.5C17.1045 15.5 17.9999 14.6046 17.9999 13.5C17.9999 12.3955 17.1045 11.5 15.9999 11.5C14.8954 11.5 13.9999 12.3955 13.9999 13.5C13.9999 14.6046 14.8954 15.5 15.9999 15.5Z" fill="white"/>
</g>
</svg>
