<svg width="47" height="10" viewBox="0 0 47 10" fill="none" xmlns="http://www.w3.org/2000/svg">
<g id="Logo 1925 - Text - White">
<path id="Vector" d="M0.898926 0.546631H5.94359V1.71931H2.15056V4.32241H5.88041V5.49509H2.15056V8.67808H5.94359V9.85076H0.898926V0.546631Z" fill="white"/>
<path id="Vector_2" d="M9.91615 5.39633C9.829 5.08812 9.56538 4.86583 9.22769 4.86583C8.86495 4.86583 8.57628 5.11282 8.57628 5.45861C8.57628 5.7056 8.67649 5.91501 9.15253 6.1008L10.0534 6.45839C10.7037 6.7172 11.305 7.30999 11.305 8.17339C11.305 9.19787 10.4161 10.0001 9.26473 10.0001C8.21353 10.0001 7.3497 9.35788 7.17432 8.48267L8.27562 8.24856C8.38782 8.65556 8.7887 8.93907 9.26473 8.93907C9.74077 8.93907 10.1155 8.63086 10.1155 8.19916C10.1155 7.89096 9.91506 7.63108 9.55231 7.49577L8.62639 7.12528C7.83772 6.81707 7.38673 6.23718 7.38673 5.48439C7.38673 4.54689 8.20046 3.80591 9.2266 3.80591C10.0654 3.80591 10.7658 4.3117 10.9913 5.01509L9.91506 5.3974L9.91615 5.39633Z" fill="white"/>
<path id="Vector_3" d="M13.1513 9.85083V5.00117H12.062V3.95198H13.1513V1.6936H14.3409V3.95198H15.6045V5.00117H14.3409V9.85083H13.1513Z" fill="white"/>
<path id="Vector_4" d="M17.0282 9.99902C16.5401 9.99902 16.1523 9.61672 16.1523 9.13562C16.1523 8.65452 16.5401 8.27222 17.0282 8.27222C17.5162 8.27222 17.904 8.65452 17.904 9.13562C17.904 9.61672 17.5162 9.99902 17.0282 9.99902Z" fill="white"/>
<path id="Vector_5" d="M22.9869 2.064H21.9858V0.916016H24.2015V9.84965H22.9869V2.06292V2.064Z" fill="white"/>
<path id="Vector_6" d="M29.0307 6.7783C27.303 6.7783 25.9893 5.44561 25.9893 3.78002C25.9893 2.11443 27.3662 0.781738 29.1189 0.781738C30.8716 0.781738 32.2354 2.11443 32.2354 3.78002C32.2354 4.98921 31.535 5.85261 30.5328 7.19819L28.5677 9.85068H27.0786L29.4315 6.74071C29.3063 6.76541 29.169 6.7783 29.0307 6.7783ZM29.1189 1.90395C28.0546 1.90395 27.2409 2.71795 27.2409 3.78002C27.2409 4.84209 28.0546 5.65502 29.1189 5.65502C30.1832 5.65502 30.9969 4.84101 30.9969 3.78002C30.9969 2.71902 30.1712 1.90395 29.1189 1.90395Z" fill="white"/>
<path id="Vector_7" d="M39.1057 8.70265V9.85063H33.3726L36.402 6.08667C37.2527 5.02567 37.7669 4.45759 37.7669 3.44599C37.7669 2.5697 37.1035 1.91571 36.2277 1.91571C35.3519 1.91571 34.6885 2.5944 34.6885 3.49539V3.61888H33.4118V3.49539C33.4118 1.98981 34.6264 0.768799 36.2277 0.768799C37.829 0.768799 39.0436 1.96618 39.0436 3.44599C39.0436 4.70458 38.3802 5.44449 37.2909 6.81476L35.7767 8.70265H39.1068H39.1057Z" fill="white"/>
<path id="Vector_8" d="M43.2932 3.85299C45.0208 3.85299 46.3847 5.21038 46.3847 6.91356C46.3847 8.61674 44.9457 9.99882 43.1178 9.99882C41.6156 9.99882 40.4141 8.99904 40.0884 7.64165L41.2028 7.36996C41.4282 8.24625 42.1788 8.87554 43.1178 8.87554C44.2572 8.87554 45.133 8.02396 45.133 6.91356C45.133 5.80316 44.2322 4.95157 43.0426 4.95157C42.279 4.95157 41.6036 5.22326 41.1025 5.67966L42.3291 0.916992H46.047V2.06497H43.2311L42.7681 3.90346C42.9435 3.86588 43.1189 3.85406 43.2943 3.85406L43.2932 3.85299Z" fill="white"/>
</g>
</svg>
