<svg width="26" height="30" viewBox="0 0 26 30" fill="none" xmlns="http://www.w3.org/2000/svg">
<path fill-rule="evenodd" clip-rule="evenodd" d="M14.8657 9.13336C14.8657 9.93757 15.1781 10.6774 15.7682 11.2743C16.5982 12.1124 17.5072 12.2268 18.1255 12.1765C18.8613 12.1156 19.6013 11.7757 20.1066 11.2665L20.2363 11.1354C20.6074 10.7599 20.8352 10.5294 21.0569 10.312L22.5808 11.8131L23.6507 10.7266L23.6652 10.6998L22.1639 9.18059L23.2317 8.09944L22.1154 6.97037L21.0475 8.05258C21.0475 8.05258 17.9269 4.88838 17.5397 4.49279C17.3317 4.27917 17.2042 4.05433 17.2042 3.69726C17.2042 3.31885 17.373 3.06634 17.5167 2.92218C17.7253 2.71036 18.0327 2.57868 18.314 2.57868C18.743 2.57868 19.0077 2.80858 19.0982 2.90608L19.1215 2.92959L19.1447 2.90716L19.779 2.26774L20.2168 1.82494L20.2356 1.80269L20.2059 1.76922C19.9189 1.47221 19.2881 0.973694 18.3103 0.973694C17.5651 0.973694 16.875 1.27432 16.3691 1.81951C15.895 2.32869 15.6246 3.01099 15.6246 3.69202C15.6246 4.82308 16.261 5.51822 16.7112 5.94149L15.7616 6.88157C15.2092 7.43957 14.8657 8.30367 14.8657 9.13336ZM16.8816 8.01694L17.8246 7.06245L19.9355 9.1773C19.8391 9.2777 19.4303 9.695 18.9802 10.1463C18.4365 10.687 17.5361 10.8006 16.8816 10.1396C16.596 9.84893 16.4453 9.4886 16.4453 9.09486C16.4453 8.69815 16.609 8.29409 16.8816 8.01694ZM23.7613 15.8623C22.3186 14.4082 20.3991 13.6082 18.3581 13.6082C16.3172 13.6082 14.3975 14.4082 12.9545 15.8623C11.5118 17.3179 10.7169 19.2507 10.7169 21.3071C10.7169 23.3638 11.5118 25.2953 12.9545 26.7494C14.3975 28.2044 16.3172 29.0046 18.3581 29.0046C20.3991 29.0046 22.3186 28.2044 23.7613 26.7494C25.2048 25.2953 26 23.3638 26 21.3071C26 19.2507 25.2048 17.3179 23.7613 15.8623ZM18.3581 27.0242C16.8418 27.0242 15.416 26.4288 14.3445 25.3489C13.2724 24.2693 12.6802 22.8328 12.6802 21.3071C12.6802 19.7782 13.2724 18.343 14.3445 17.2634C15.416 16.1815 16.8418 15.587 18.3581 15.587C19.8743 15.587 21.2996 16.1815 22.3724 17.2634C23.4431 18.343 24.0346 19.7782 24.0346 21.3071C24.0346 24.4591 21.4886 27.0242 18.3581 27.0242ZM10.7292 10.2027C10.7292 13.4787 8.9507 16.4664 6.08214 18.0107C6.90152 18.5349 7.59133 19.2587 8.06865 20.11C8.57304 21.0025 8.84001 22.0202 8.84001 23.0527C8.84001 24.647 8.22126 26.1473 7.10074 27.277C5.98258 28.4047 4.49219 29.0263 2.90837 29.0263H0.00430291L0 1.35468H1.94836C4.2937 1.35468 6.49973 2.27448 8.15975 3.94752C9.81942 5.61875 10.7292 7.84072 10.7292 10.2027ZM6.76906 5.34653C5.48863 4.05734 3.785 3.34419 1.97597 3.33571V17.0708C3.785 17.0623 5.48863 16.349 6.76906 15.0603C8.0581 13.764 8.76381 12.0383 8.76381 10.2027C8.76381 8.36928 8.0581 6.64493 6.76906 5.34653ZM1.97597 27.0464H2.90621C5.09213 27.0464 6.87072 25.2549 6.87072 23.0527C6.87072 21.9857 6.45937 20.9835 5.71115 20.2274C4.96161 19.4743 3.95803 19.0603 2.89796 19.0603C2.89796 19.0603 2.13698 19.056 1.97597 19.056V27.0464Z" fill="black"/>
</svg>
