<svg width="1316" height="108" viewBox="0 0 1316 108" fill="none" xmlns="http://www.w3.org/2000/svg">
<path opacity="0.1" d="M0 0H29.3024C51.7912 0 67.2951 7.2741 67.2951 27.2297C67.2951 42.0864 58.6126 49.5071 44.962 52.9166V53.2251C59.695 54.4593 70.0828 64.0553 70.0828 79.2206C70.0828 102.416 50.8568 107.993 28.843 107.993H0V0ZM15.4961 95.3038H27.1298C41.0841 95.3038 53.6445 92.3726 53.6445 77.8244C53.6445 61.1163 38.9193 58.7945 25.588 58.7945H15.4961V95.3038ZM15.4961 46.1053H24.0306C39.0751 46.1053 51.7912 44.7168 51.7912 28.7801C51.7912 15.9367 40.7804 12.6892 31.7787 12.6892H15.5039V46.1053H15.4961ZM132.207 0H148.607L194.675 107.993H177.652L166.564 80.7633H113.145L102.056 107.993H85.6568L132.2 0H132.207ZM139.862 14.5405L118.152 68.0741H161.572L139.862 14.5405ZM210.249 0H231.585L279.903 86.9498H280.215V0H295.905V107.993H275.823L226.251 19.1842H225.939V107.993H210.249V0ZM410.499 20.3412C403.272 15.5587 395.462 13.1674 382.193 13.1674C358.458 13.1674 342.682 30.6623 342.682 53.9965C342.682 78.5263 360.078 94.8333 381.461 94.8333C391.631 94.8333 394.286 93.7842 397.969 93.0359V61.3323H376.298V49.0597H412.71V103.349C407.103 105.293 397.377 107.985 381.305 107.985C348.724 107.993 327.053 86.7492 327.053 53.5491C327.053 21.3826 350.056 0 381.453 0C396.49 0 403.124 2.237 411.674 5.23766L410.499 20.3412ZM681.361 0C713.288 0 731.976 23.0334 731.976 53.9965C731.976 85.7001 713.443 107.993 681.361 107.993C649.279 107.993 630.746 85.7001 630.746 53.9965C630.746 23.0334 649.427 0 681.361 0ZM681.361 94.8333C705.617 94.8333 716.013 74.7851 716.013 53.9965C716.013 32.7604 704.566 13.0132 681.361 13.1597C658.156 13.0132 646.709 32.7527 646.709 53.9965C646.709 74.7851 657.104 94.8333 681.361 94.8333ZM755.337 0H771.223V94.3781H817.633V107.993H755.337V0ZM918.864 62.2117C918.864 92.0177 903.212 107.993 876.035 107.993C848.859 107.993 833.207 92.0254 833.207 62.2117V0H849.015V60.2292C849.015 80.6168 855.649 94.6096 876.035 94.6096C896.422 94.6096 903.056 80.6168 903.056 60.2292V0H918.864V62.2117ZM957.799 0H1012.31V13.6148H972.493V45.1796H1010.55V58.7945H972.493V107.993H957.799V0ZM1098.54 17.5026C1090.71 14.5096 1086.42 13.1597 1078.44 13.1597C1069.85 13.1597 1059.72 16.1527 1059.72 27.0754C1059.72 47.1158 1105.75 42.4798 1105.75 76.8833C1105.75 99.1684 1088.11 107.993 1066.62 107.993C1059.11 107.993 1051.74 105.903 1044.69 103.658L1046.22 89.7422C1051.44 91.8403 1060.64 94.8333 1068.47 94.8333C1077.21 94.8333 1089.49 90.043 1089.49 77.7858C1089.49 54.4439 1043.46 60.8772 1043.46 28.4176C1043.46 9.87364 1058.49 0 1077.83 0C1084.88 0 1093.32 1.19564 1100.69 3.74119L1098.54 17.5026ZM1136.9 0H1199.2V13.6148H1152.83V45.1796H1195.05V58.7945H1152.83V94.3781H1199.2V107.993H1136.9V0ZM1230.34 0H1251.68L1300 86.9498H1300.31V0H1316V107.993H1295.92L1246.35 19.1842H1246.03V107.993H1230.34V0ZM565.787 104.452L551.007 89.7113C548.531 92.1103 546.085 94.5556 541.452 99.1761C532.279 108.34 513.372 113.254 499.348 99.2533C485.121 85.0445 490.518 65.8757 499.27 57.136C502.665 53.7419 506.715 49.777 508.833 47.6635C507.01 45.6965 498.032 38.7001 498.032 26.0186C498.032 12.9052 508.615 0.00771378 524.087 0.00771378C535.394 0.00771378 541.74 6.92698 542.542 7.72921C541.779 8.50059 533.221 17.0012 532.022 18.2045C530.994 17.1499 529.759 16.315 528.393 15.7512C527.027 15.1874 525.559 14.9066 524.079 14.9262C519.197 14.9262 512.921 18.8833 512.921 26.0726C512.921 30.6083 515.926 33.6167 516.316 34.0024C521.3 38.97 550.952 68.7067 550.952 68.7067L561.519 58.1542L572.024 68.7067L561.465 79.1974L576.237 93.9462L565.787 104.452ZM519.337 58.2236L509.853 67.6962C504.791 72.7564 503.288 82.1209 509.853 88.6777C516.425 95.2344 525.761 93.7765 530.878 88.7548C535.978 83.7254 540.502 79.1357 540.502 79.1357L519.337 58.2236Z" fill="white"/>
</svg>
